<svg width="42" height="40" viewBox="0 0 42 40" fill="none" xmlns="http://www.w3.org/2000/svg">
<rect width="41.619" height="39.7273" rx="5.56277" fill="#5DABE2"/>
<path fill-rule="evenodd" clip-rule="evenodd" d="M20.7099 10.7615C22.9832 10.7615 24.8145 12.2284 24.8777 14.5563H16.5737C16.921 12.1327 18.5944 10.7615 20.7099 10.7615ZM29.0139 19.4991H24.2462C23.6779 20.679 22.6359 21.6357 20.7415 21.6357C18.5313 21.6357 16.7631 20.1688 16.5421 17.5539H29.3296C29.4244 16.9799 29.4559 16.4059 29.4559 15.8318C29.4559 10.5701 25.8881 7.09424 20.8362 7.09424C15.658 7.09424 12.0586 10.6339 12.0586 16.2145C12.0586 19.839 13.6349 22.6199 16.145 24.1128L20.513 28.0439L24.9615 24.4042C27.0137 23.3701 28.4107 21.5704 29.0139 19.4991ZM22.6503 32.1474C22.6503 33.3099 21.7079 34.2523 20.5453 34.2523C19.3828 34.2523 18.4404 33.3099 18.4404 32.1474C18.4404 30.9848 19.3828 30.0424 20.5453 30.0424C21.7079 30.0424 22.6503 30.9848 22.6503 32.1474Z" fill="white"/>
<circle cx="20.4669" cy="32.4107" r="2.43563" fill="#EFD69A"/>
</svg>
