<svg width="53" height="54" viewBox="0 0 53 54" fill="none" xmlns="http://www.w3.org/2000/svg">
<circle cx="26.5011" cy="27.4412" r="24.38" fill="white"/>
<path fill-rule="evenodd" clip-rule="evenodd" d="M26.5013 5.3576C14.3113 5.3576 4.41797 15.2509 4.41797 27.4409C4.41797 39.6309 14.3113 49.5243 26.5013 49.5243C38.6913 49.5243 48.5846 39.6309 48.5846 27.4409C48.5846 15.2509 38.6913 5.3576 26.5013 5.3576ZM26.5013 11.9826C30.1671 11.9826 33.1263 14.9418 33.1263 18.6076C33.1263 22.2734 30.1671 25.2326 26.5013 25.2326C22.8355 25.2326 19.8763 22.2734 19.8763 18.6076C19.8763 14.9418 22.8355 11.9826 26.5013 11.9826ZM13.2513 36.2301C16.1001 40.5143 20.9805 43.341 26.5013 43.341C32.0221 43.341 36.9025 40.5143 39.7513 36.2301C39.6851 31.8356 30.8959 29.4285 26.5013 29.4285C22.0846 29.4285 13.3176 31.8356 13.2513 36.2301Z" fill="#373636"/>
</svg>
