<svg width="33" height="37" viewBox="0 0 33 37" fill="none" xmlns="http://www.w3.org/2000/svg">
<g clip-path="url(#clip0)">
<path d="M33 26.2534V2.62842C33 1.69326 32.2118 0.940918 31.2321 0.940918H7.07143C3.16741 0.940918 0 3.96436 0 7.69092V30.1909C0 33.9175 3.16741 36.9409 7.07143 36.9409H31.2321C32.2118 36.9409 33 36.1886 33 35.2534V34.1284C33 33.6011 32.7422 33.1229 32.3444 32.8136C32.035 31.7308 32.035 28.644 32.3444 27.5612C32.7422 27.2589 33 26.7808 33 26.2534ZM9.42857 10.3628C9.42857 10.1308 9.62745 9.94092 9.87054 9.94092H25.4866C25.7297 9.94092 25.9286 10.1308 25.9286 10.3628V11.769C25.9286 12.0011 25.7297 12.1909 25.4866 12.1909H9.87054C9.62745 12.1909 9.42857 12.0011 9.42857 11.769V10.3628ZM9.42857 14.8628C9.42857 14.6308 9.62745 14.4409 9.87054 14.4409H25.4866C25.7297 14.4409 25.9286 14.6308 25.9286 14.8628V16.269C25.9286 16.5011 25.7297 16.6909 25.4866 16.6909H9.87054C9.62745 16.6909 9.42857 16.5011 9.42857 16.269V14.8628ZM28.0942 32.4409H7.07143C5.76763 32.4409 4.71429 31.4354 4.71429 30.1909C4.71429 28.9534 5.775 27.9409 7.07143 27.9409H28.0942C27.9542 29.1433 27.9542 31.2386 28.0942 32.4409Z" fill="#373636"/>
</g>
<defs>
<clipPath id="clip0">
<rect width="33" height="36" fill="white" transform="translate(0 0.940918)"/>
</clipPath>
</defs>
</svg>
