<svg width="45" height="46" viewBox="0 0 45 46" fill="none" xmlns="http://www.w3.org/2000/svg">
<path d="M22.5 21.3785C21.3563 21.3785 20.4375 22.2972 20.4375 23.441C20.4375 24.5847 21.3563 25.5035 22.5 25.5035C23.6438 25.5035 24.5625 24.5847 24.5625 23.441C24.5625 22.2972 23.6438 21.3785 22.5 21.3785ZM22.5 4.69098C12.15 4.69098 3.75 13.091 3.75 23.441C3.75 33.791 12.15 42.191 22.5 42.191C32.85 42.191 41.25 33.791 41.25 23.441C41.25 13.091 32.85 4.69098 22.5 4.69098ZM26.6063 27.5472L11.25 34.691L18.3938 19.3347L33.75 12.191L26.6063 27.5472Z" fill="#373636"/>
</svg>
