<svg width="19" height="18" viewBox="0 0 19 18" fill="none" xmlns="http://www.w3.org/2000/svg">
<path d="M9.19474 17.0988L9.36557 17.1609L9.53639 17.0988C11.2168 16.4879 13.1801 15.0948 14.8005 13.3632C16.4145 11.6385 17.75 9.5122 18.0965 7.39031C18.1815 7.02484 18.2311 6.64229 18.2311 6.24458C18.2311 3.41928 15.9408 1.12891 13.1159 1.12891C11.6311 1.12891 10.2983 1.76354 9.36556 2.7711C8.43286 1.76356 7.10005 1.12891 5.61567 1.12891C2.79037 1.12891 0.5 3.41874 0.5 6.24458C0.5 6.64208 0.549713 7.02446 0.633534 7.38927C0.980367 9.51155 2.31603 11.6382 3.93028 13.3632C5.55078 15.0948 7.51413 16.4879 9.19474 17.0988Z" fill="#ffffff" stroke="white"/>
</svg>

