<svg width="15" height="15" viewBox="0 0 15 15" fill="none" xmlns="http://www.w3.org/2000/svg">
<path fill-rule="evenodd" clip-rule="evenodd" d="M13.8314 7.86572C15.4808 6.16357 15.3841 3.34521 13.5443 1.7749C12.0965 0.541066 10.0125 0.620065 8.5364 1.76264C8.37569 1.88704 8.2222 2.02405 8.07751 2.17334L7.50036 2.76806L6.92321 2.17334C6.77777 2.02297 6.62334 1.88507 6.46155 1.75996C4.98736 0.619942 2.90312 0.542033 1.45641 1.7749C-0.38343 3.34521 -0.480109 6.16357 1.16638 7.86572L6.83532 13.7192C7.20153 14.0972 7.79626 14.0972 8.16247 13.7192L13.8314 7.86572ZM7.49889 12.2483L12.7539 6.82218C13.8095 5.73289 13.7425 3.91653 12.5709 2.91618C11.6377 2.12137 10.144 2.19645 9.15464 3.21726L7.50036 4.92193L5.84504 3.21619C4.85954 2.19732 3.36358 2.12087 2.4298 2.91618C1.25813 3.91661 1.19076 5.73327 2.24436 6.82267C2.24441 6.82273 2.24431 6.82262 2.24436 6.82267L7.49889 12.2483Z" fill="#7E7A7A"/>
</svg>
