<svg width="15" height="15" viewBox="0 0 15 15" fill="none" xmlns="http://www.w3.org/2000/svg">
<g clip-path="url(#clip0)">
<path d="M8.61607 2.75438L8.61573 2.75473L8.03858 3.34946L7.50036 3.90408L6.96213 3.34946L6.38499 2.75473L6.38412 2.75385C5.156 1.48413 3.21265 1.32289 1.94304 2.40467C0.437436 3.68998 0.355355 6.00725 1.70513 7.40303C1.70518 7.40308 1.70523 7.40313 1.70527 7.40318C1.70533 7.40324 1.70539 7.4033 1.70545 7.40336L7.37394 13.2564L8.61607 2.75438ZM8.61607 2.75438C9.8475 1.48378 11.7881 1.32316 13.0574 2.40445L8.61607 2.75438ZM13.2927 7.40303L13.2928 7.40288C14.6453 6.00713 14.5633 3.68987 13.0575 2.40455L13.2927 7.40303ZM13.2927 7.40303L7.62385 13.2564M13.2927 7.40303L7.62385 13.2564M7.62385 13.2564L7.62371 13.2565C7.55223 13.3302 7.44555 13.3302 7.37408 13.2565L7.62385 13.2564Z" stroke="#7E7A7A" stroke-width="1.5"/>
</g>
<defs>
<clipPath id="clip0">
<rect width="15" height="15" fill="white"/>
</clipPath>
</defs>
</svg>
