<svg width="22" height="21" viewBox="0 0 22 21" fill="none" xmlns="http://www.w3.org/2000/svg">
<path d="M20.4286 0H1.56652C0.702232 0 0 0.679688 0 1.51406V19.4859C0 20.3203 0.702232 21 1.56652 21H20.4286C21.2929 21 22 20.3203 22 19.4859V1.51406C22 0.679688 21.2929 0 20.4286 0ZM6.64911 18H3.38839V7.97812H6.65402V18H6.64911ZM5.01875 6.60938C3.97277 6.60938 3.12812 5.79844 3.12812 4.80469C3.12812 3.81094 3.97277 3 5.01875 3C6.05982 3 6.90937 3.81094 6.90937 4.80469C6.90937 5.80312 6.06473 6.60938 5.01875 6.60938ZM18.8719 18H15.6112V13.125C15.6112 11.9625 15.5866 10.4672 13.917 10.4672C12.2179 10.4672 11.9576 11.7328 11.9576 13.0406V18H8.69688V7.97812H11.825V9.34687H11.8692C12.3062 8.55937 13.3719 7.72969 14.958 7.72969C18.258 7.72969 18.8719 9.80625 18.8719 12.5062V18Z" fill="white"/>
</svg>
