<svg width="42" height="42" viewBox="0 0 42 42" fill="none" xmlns="http://www.w3.org/2000/svg">
<circle cx="20.9997" cy="20.9997" r="19.32" fill="white"/>
<path fill-rule="evenodd" clip-rule="evenodd" d="M21 3.5C11.34 3.5 3.5 11.34 3.5 21C3.5 30.66 11.34 38.5 21 38.5C30.66 38.5 38.5 30.66 38.5 21C38.5 11.34 30.66 3.5 21 3.5ZM21 8.75C23.905 8.75 26.25 11.095 26.25 14C26.25 16.905 23.905 19.25 21 19.25C18.095 19.25 15.75 16.905 15.75 14C15.75 11.095 18.095 8.75 21 8.75ZM10.5 27.965C12.7575 31.36 16.625 33.6 21 33.6C25.375 33.6 29.2425 31.36 31.5 27.965C31.4475 24.4825 24.4825 22.575 21 22.575C17.5 22.575 10.5525 24.4825 10.5 27.965Z" fill="#838383"/>
</svg>
