<svg width="14" height="13" viewBox="0 0 14 13" fill="none" xmlns="http://www.w3.org/2000/svg">
<path d="M8.53197 0.659011C8.53087 0.661028 8.52961 0.663853 8.52846 0.667804C8.52696 0.672973 8.525 0.682266 8.525 0.69686V3.01982V3.66197L7.8829 3.66978C5.70218 3.69627 3.87546 3.94551 2.6072 4.65334C1.9878 4.99904 1.5093 5.45024 1.1807 6.04033C0.85038 6.63352 0.65 7.40602 0.65 8.42462C0.65 9.78012 1.38672 11.1674 2.28676 12.0438C1.80348 10.1298 1.93129 8.64007 2.95116 7.64313C3.4809 7.1253 4.19175 6.8077 5.00551 6.61241C5.82009 6.41693 6.7831 6.33333 7.86508 6.31682L8.525 6.30674V6.96674V9.51784C8.525 9.5326 8.52698 9.54197 8.52849 9.54716C8.52961 9.55102 8.53083 9.55378 8.53189 9.55576L13.3336 5.15504C13.3392 5.14991 13.35 5.13526 13.35 5.1071C13.35 5.0791 13.3394 5.06452 13.3337 5.05927L8.53197 0.659011ZM8.53197 0.659011L13.3336 5.05922L8.53197 0.659011ZM2.67582 12.3827L2.67581 12.3827L2.67582 12.3827Z" stroke="#7E7A7A" stroke-width="1.3"/>
</svg>
