<svg width="17" height="19" viewBox="0 0 17 19" fill="none" xmlns="http://www.w3.org/2000/svg">
<path d="M8.20527 6.14765C8.54545 6.15541 8.87948 6.16162 9.20629 6.16769C10.8201 6.1977 12.2578 6.22443 13.3907 6.41823C14.7682 6.65387 15.9071 7.17255 16.317 8.44244C16.4302 8.69434 16.5 8.97655 16.5 9.2805C16.5 9.75386 16.3375 10.1846 16.0716 10.5281C16.2567 10.8365 16.3641 11.1977 16.3641 11.584C16.3641 12.1781 16.1102 12.7061 15.7125 13.0783C15.8201 13.3246 15.8821 13.5974 15.8821 13.8871C15.8821 14.4801 15.629 15.0073 15.2327 15.3795C15.3409 15.6263 15.4033 15.8998 15.4033 16.1907C15.4033 17.3277 14.4792 18.2526 13.3418 18.2526H4.88844C4.42544 18.2526 4.06727 18.1955 3.77083 18.0925C3.46981 17.9879 3.25952 17.8452 3.09049 17.7148C3.04582 17.6803 3.00515 17.6479 2.96705 17.6176C2.7351 17.4329 2.59857 17.3242 2.23619 17.2835C1.50427 17.2011 1.01437 16.8874 0.749575 16.3784C0.514028 15.9257 0.5 15.3869 0.5 14.9665V9.94481C0.5 9.30448 0.664639 8.82654 1.0058 8.47771C1.32165 8.15477 1.73943 8.00168 2.06917 7.8841C2.09574 7.87463 2.12219 7.86525 2.14851 7.85591C2.8025 7.62387 3.37872 7.41943 3.76545 6.56626C4.62863 4.66193 4.61266 3.3272 4.60181 2.42075C4.60153 2.39705 4.60125 2.37366 4.60099 2.35055C4.59842 2.12317 4.59687 1.89505 4.61694 1.69323C4.63698 1.49169 4.6824 1.26549 4.80765 1.06192C5.09058 0.602106 5.60951 0.5 6.16413 0.5C7.06515 0.5 7.70959 1.13666 8.08077 1.81188C8.45592 2.49431 8.63415 3.34892 8.53824 4.05697L8.20527 6.14765ZM8.20527 6.14765C8.20635 6.11888 8.20863 6.0836 8.21289 6.04079C8.23146 5.85406 8.27569 5.61332 8.33597 5.28519L8.34102 5.25768C8.40226 4.92428 8.47516 4.5228 8.53823 4.05701L8.20527 6.14765Z" fill="#FFDB5E" stroke="white"/>
<path d="M10.4089 10.8417H14.4398C14.9879 10.8417 15.5023 10.5484 15.7825 10.0766C15.8977 9.88222 15.8335 9.63064 15.6386 9.51493C15.4442 9.39921 15.1926 9.46433 15.0769 9.65875C14.9443 9.88316 14.6993 10.0218 14.4393 10.0218H10.3119C9.90295 10.0218 9.57032 9.6892 9.57032 9.28022C9.57032 8.87123 9.90295 8.5386 10.3119 8.5386H13.0699C13.2962 8.5386 13.4798 8.35495 13.4798 8.12868C13.4798 7.9024 13.2962 7.71875 13.0699 7.71875H10.3115C9.45039 7.71875 8.75 8.41914 8.75 9.28022C8.75 9.76041 8.97253 10.1853 9.31453 10.472C9.02641 10.7555 8.84698 11.149 8.84698 11.5838C8.84698 12.0654 9.07091 12.4917 9.41478 12.7779C9.12854 13.0609 8.95098 13.453 8.95098 13.8868C8.95098 14.4115 9.21286 14.8744 9.61108 15.1578C9.36559 15.4338 9.21193 15.7931 9.21193 16.1904C9.21193 17.0515 9.91232 17.7519 10.7734 17.7519H13.3426C13.8907 17.7519 14.4056 17.4591 14.6857 16.9873C14.8014 16.7929 14.7373 16.5413 14.5428 16.4256C14.3479 16.3108 14.0964 16.374 13.9811 16.5685C13.8476 16.7929 13.6026 16.932 13.3426 16.932H10.7734C10.3644 16.932 10.0318 16.5994 10.0318 16.1904C10.0318 15.7814 10.3644 15.4488 10.7734 15.4488H13.8214C14.3695 15.4488 14.8848 15.1555 15.1645 14.6837C15.2802 14.4888 15.2161 14.2373 15.0216 14.122C14.8253 14.0044 14.5747 14.0705 14.4599 14.2649C14.3245 14.4931 14.0856 14.6289 13.8214 14.6289H10.5124C10.1035 14.6289 9.77083 14.2958 9.77083 13.8868C9.77083 13.4779 10.1035 13.1452 10.5124 13.1452H14.303C14.8511 13.1452 15.366 12.8524 15.6461 12.3807C15.7618 12.1862 15.6977 11.9347 15.5032 11.8189C15.3079 11.7037 15.0568 11.7674 14.9415 11.9618C14.8061 12.1895 14.5672 12.3254 14.303 12.3254H10.4089C9.99992 12.3254 9.6673 11.9928 9.6673 11.5838C9.6673 11.1748 9.99945 10.8417 10.4089 10.8417Z" fill="#EE9547"/>
</svg>
